<svg id="visual" viewBox="0 0 900 600" width="900" height="600" xmlns="http://www.w3.org/2000/svg" xmlns:xlink="http://www.w3.org/1999/xlink" version="1.1"><path d="M0 457L21.5 461.2C43 465.3 86 473.7 128.8 463C171.7 452.3 214.3 422.7 257.2 407.7C300 392.7 343 392.3 385.8 403.3C428.7 414.3 471.3 436.7 514.2 449.7C557 462.7 600 466.3 642.8 463.3C685.7 460.3 728.3 450.7 771.2 450C814 449.3 857 457.7 878.5 461.8L900 466L900 601L878.5 601C857 601 814 601 771.2 601C728.3 601 685.7 601 642.8 601C600 601 557 601 514.2 601C471.3 601 428.7 601 385.8 601C343 601 300 601 257.2 601C214.3 601 171.7 601 128.8 601C86 601 43 601 21.5 601L0 601Z" fill="#fc5d66" stroke-linecap="round" stroke-linejoin="miter"></path></svg>